<svg width="24" height="24" viewBox="0 0 24 24" fill="none" xmlns="http://www.w3.org/2000/svg">
<path d="M7.40151 3.15519L3.34435 6.40569L2.09384 4.84485L6.151 1.59435L7.40151 3.15519Z" fill="black"/>
<path d="M12.9995 12H16.9995V14H10.9995V8H12.9995V12Z" fill="black"/>
<path fill-rule="evenodd" clip-rule="evenodd" d="M2.99954 13C2.99954 8.02944 7.02897 4 11.9995 4C16.9701 4 20.9995 8.02944 20.9995 13C20.9995 17.9706 16.9701 22 11.9995 22C7.02897 22 2.99954 17.9706 2.99954 13ZM11.9995 6C8.13354 6 4.99954 9.13401 4.99954 13C4.99954 16.866 8.13354 20 11.9995 20C15.8655 20 18.9995 16.866 18.9995 13C18.9995 9.13401 15.8655 6 11.9995 6Z" fill="black"/>
<path d="M20.651 6.40569L16.5938 3.15519L17.8444 1.59435L21.9015 4.84485L20.651 6.40569Z" fill="black"/>
</svg>
