<svg xmlns="http://www.w3.org/2000/svg" width="24" height="24" fill="none" viewBox="0 0 24 24"><path fill="#000" d="m21.7529 6.6582-3.0195 3.4492c.1147.1045.2277.2111.3379.3213C20.9467 12.3041 22 14.8478 22 17.5H2c0-2.6522 1.05335-5.1959 2.92871-7.0713.0979-.0979.19835-.1927.29981-.2861L2.29297 7.20703l1.41406-1.41406 3.1377 3.13769C8.38845 8.00214 10.1684 7.5 12 7.5c1.8188 0 3.5868.49499 5.123 1.41113l3.1241-3.56933zM12 9.5c-2.12173 0-4.15694.8425-5.65723 2.3428-1.01903 1.019-1.73356 2.2852-2.08789 3.6572H19.7451c-.3543-1.372-1.0688-2.6382-2.0879-3.6572C16.1569 10.3425 14.1217 9.5 12 9.5m-3 4H7v-2h2zm8 0h-2v-2h2z"/></svg>