<svg width="24" height="24" viewBox="0 0 24 24" fill="none" xmlns="http://www.w3.org/2000/svg">
<path d="M21.7529 6.6582L18.7334 10.1074C18.8481 10.2119 18.9611 10.3185 19.0713 10.4287C20.9467 12.3041 22 14.8478 22 17.5H2C2 14.8478 3.05335 12.3041 4.92871 10.4287C5.02661 10.3308 5.12706 10.236 5.22852 10.1426L2.29297 7.20703L3.70703 5.79297L6.84473 8.93066C8.38845 8.00214 10.1684 7.5 12 7.5C13.8188 7.5 15.5868 7.99499 17.123 8.91113L20.2471 5.3418L21.7529 6.6582ZM12 9.5C9.87827 9.5 7.84306 10.3425 6.34277 11.8428C5.32374 12.8618 4.60921 14.128 4.25488 15.5H19.7451C19.3908 14.128 18.6763 12.8618 17.6572 11.8428C16.1569 10.3425 14.1217 9.5 12 9.5ZM9 13.5H7V11.5H9V13.5ZM17 13.5H15V11.5H17V13.5Z" fill="black"/>
</svg>
