<svg width="24" height="24" viewBox="0 0 24 24" fill="none" xmlns="http://www.w3.org/2000/svg">
<path d="M20.707 7.70703L18.7705 9.64258C20.7554 11.4701 22 14.0893 22 17V18H2V17C2 14.0895 3.24395 11.47 5.22852 9.64258L3.29297 7.70703L4.70703 6.29297L6.84375 8.42969C8.34933 7.52192 10.1138 7 12 7C13.8859 7 15.6499 7.52219 17.1553 8.42969L19.293 6.29297L20.707 7.70703ZM12 9C7.92049 9 4.55669 12.0538 4.06445 16H19.9355C19.4433 12.0538 16.0795 9 12 9ZM10 13H8V11H10V13ZM16 13H14V11H16V13Z" fill="black"/>
</svg>
