<svg width="24" height="24" viewBox="0 0 24 24" fill="none" xmlns="http://www.w3.org/2000/svg">
<path d="M13.4463 6.08301C15.6841 6.19417 17.5174 7.83174 17.9326 9.97559C20.2917 10.513 22.0515 12.6228 22.0518 15.1445L22.0459 15.4043C21.9314 17.7781 20.2553 19.7377 18.0234 20.2881V20.4473H5.31738V20.3359C3.48834 19.9213 2.0772 18.3579 2.07715 16.415C2.07715 14.6642 3.22686 13.2163 4.79199 12.6455C4.79419 10.3881 6.7009 8.64023 8.95605 8.61816C9.76901 7.10656 11.3647 6.07716 13.2031 6.07715L13.4463 6.08301ZM13.2031 7.92285C11.9141 7.92286 10.8137 8.74295 10.4014 9.89258L10.1445 10.6094L9.3916 10.4932C9.26414 10.4735 9.13296 10.4629 8.99902 10.4629C7.64668 10.463 6.6377 11.489 6.6377 12.6494L6.65234 12.8906C6.66188 12.9698 6.67591 13.0481 6.69434 13.125L6.93066 14.1123L5.92578 14.2539C4.75345 14.419 3.92285 15.3587 3.92285 16.415L3.93457 16.6289C4.04843 17.6889 4.99848 18.584 6.25195 18.5996L6.40332 18.6016H16.8545L17.0273 18.5879C18.8063 18.447 20.2061 16.9593 20.2061 15.1445C20.2059 13.3288 18.8051 11.8399 17.0254 11.7002L16.1992 11.6357L16.1748 10.8076C16.1276 9.20635 14.8155 7.92285 13.2031 7.92285ZM2.33398 9.39844H3.74219V10.334H2.33398V11.7422H1.39844V10.334H0V9.39844H1.39844V8H2.33398V9.39844ZM21.1084 6.39844H22.5166V7.33398H21.1084V8.74219H20.1729V7.33398H18.7744V6.39844H20.1729V5H21.1084V6.39844Z" fill="black"/>
</svg>
