<svg width="24" height="24" viewBox="0 0 24 24" fill="none" xmlns="http://www.w3.org/2000/svg">
<path d="M13.2559 5V4H13.2558L13.2559 5ZM17.5518 9.1709L16.5522 9.20028L16.5786 10.0977L17.4736 10.1678L17.5518 9.1709ZM22 13.9854H23V13.9853L22 13.9854ZM17.5557 18.7988L17.4767 17.802L16.5557 17.8749V18.7988H17.5557ZM17.5557 18.8164V19.8164H18.5557V18.8164H17.5557ZM5.5752 18.8164H4.5752V19.8164H5.5752V18.8164ZM5.5752 18.8145H6.5752V17.8267L5.58749 17.8145L5.5752 18.8145ZM2 15.3867H1V15.3868L2 15.3867ZM5.08594 11.9941L5.22529 12.9844L6.31496 12.831L6.05837 11.761L5.08594 11.9941ZM4.99512 11.2314L3.99512 11.2313V11.2314H4.99512ZM8.61816 7.80176V6.80176H8.61812L8.61816 7.80176ZM9.20801 7.84766L9.05487 8.83586L9.87058 8.96227L10.1493 8.1853L9.20801 7.84766ZM13.2559 5V6C15.0444 6 16.5 7.42372 16.5522 9.20028L17.5518 9.1709L18.5513 9.14152C18.4675 6.28801 16.1304 4 13.2559 4V5ZM17.5518 9.1709L17.4736 10.1678C19.4468 10.3225 21 11.9727 21 13.9854L22 13.9854L23 13.9853C22.9999 10.9197 20.6348 8.4095 17.6299 8.17396L17.5518 9.1709ZM22 13.9854H21C21 15.9968 19.4487 17.6458 17.4767 17.802L17.5557 18.7988L17.6346 19.7957C20.6371 19.5579 23 17.0496 23 13.9854H22ZM17.5557 18.7988H16.5557V18.8164H17.5557H18.5557V18.7988H17.5557ZM17.5557 18.8164V17.8164H5.5752V18.8164V19.8164H17.5557V18.8164ZM5.5752 18.8164H6.5752V18.8145H5.5752H4.5752V18.8164H5.5752ZM5.5752 18.8145L5.58749 17.8145C4.1033 17.7963 3.00008 16.6669 3 15.3867L2 15.3867L1 15.3868C1.00015 17.8646 3.08943 19.784 5.5629 19.8144L5.5752 18.8145ZM2 15.3867H3C3 14.2115 3.92379 13.1675 5.22529 12.9844L5.08594 11.9941L4.94659 11.0039C2.7556 11.3122 1 13.119 1 15.3867H2ZM5.08594 11.9941L6.05837 11.761C6.01712 11.5889 5.99512 11.4118 5.99512 11.2314H4.99512H3.99512C3.99512 11.5752 4.03715 11.9089 4.1135 12.2273L5.08594 11.9941ZM4.99512 11.2314L5.99512 11.2316C5.99529 9.9406 7.11735 8.80183 8.61821 8.80176L8.61816 7.80176L8.61812 6.80176C6.11738 6.80187 3.99544 8.73418 3.99512 11.2313L4.99512 11.2314ZM8.61816 7.80176V8.80176C8.7653 8.80176 8.91118 8.81359 9.05487 8.83586L9.20801 7.84766L9.36115 6.85945C9.12098 6.82223 8.87266 6.80176 8.61816 6.80176V7.80176ZM9.20801 7.84766L10.1493 8.1853C10.6068 6.90986 11.8263 6.00005 13.2559 6L13.2559 5L13.2558 4C10.9555 4.00008 9.00018 5.46531 8.26673 7.51001L9.20801 7.84766Z" fill="black"/>
</svg>
