<svg width="24" height="24" viewBox="0 0 24 24" fill="none" xmlns="http://www.w3.org/2000/svg">
<path d="M1.86633 8V11.742" stroke="black" stroke-width="0.935512"/>
<path d="M0 9.86633L3.74205 9.86633" stroke="black" stroke-width="0.935512"/>
<path d="M20.6411 5V8.74205" stroke="black" stroke-width="0.935512"/>
<path d="M18.7747 6.86633L22.5168 6.86633" stroke="black" stroke-width="0.935512"/>
<path d="M13.2031 7V6.0772H13.2031L13.2031 7ZM17.0977 10.7803L16.1753 10.8075L16.1997 11.6354L17.0254 11.7002L17.0977 10.7803ZM21.1289 15.1445H22.0517V15.1445L21.1289 15.1445ZM17.1006 19.5078L17.0277 18.5879L16.1778 18.6552V19.5078H17.1006ZM17.1006 19.5244V20.4472H18.0234V19.5244H17.1006ZM6.24023 19.5244H5.31743V20.4472H6.24023V19.5244ZM6.24023 19.5225H7.16304V18.6111L6.25172 18.5997L6.24023 19.5225ZM3 16.415H2.0772V16.4151L3 16.415ZM5.79688 13.3398L5.92557 14.2536L6.93095 14.112L6.69425 13.1247L5.79688 13.3398ZM5.71484 12.6494H4.79204V12.6496L5.71484 12.6494ZM8.99902 9.54004V8.61723H8.99897L8.99902 9.54004ZM9.5332 9.58105L9.39204 10.493L10.1447 10.6095L10.4018 9.89263L9.5332 9.58105ZM13.2031 7V7.9228C14.8155 7.9228 16.128 9.20622 16.1753 10.8075L17.0977 10.7803L18.0201 10.7531C17.9435 8.15775 15.8173 6.0772 13.2031 6.0772V7ZM17.0977 10.7803L17.0254 11.7002C18.8051 11.84 20.2059 13.3288 20.2061 15.1446L21.1289 15.1445L22.0517 15.1445C22.0515 12.3576 19.902 10.0748 17.1699 9.8603L17.0977 10.7803ZM21.1289 15.1445H20.2061C20.2061 16.9593 18.8067 18.447 17.0277 18.5879L17.1006 19.5078L17.1735 20.4277C19.9036 20.2115 22.0517 17.9307 22.0517 15.1445H21.1289ZM17.1006 19.5078H16.1778V19.5244H17.1006H18.0234V19.5078H17.1006ZM17.1006 19.5244V18.6016H6.24023V19.5244V20.4472H17.1006V19.5244ZM6.24023 19.5244H7.16304V19.5225H6.24023H5.31743V19.5244H6.24023ZM6.24023 19.5225L6.25172 18.5997C4.9147 18.5831 3.92284 17.5657 3.9228 16.415L3 16.415L2.0772 16.4151C2.07726 18.6707 3.97873 20.4172 6.22875 20.4452L6.24023 19.5225ZM3 16.415H3.9228C3.9228 15.3587 4.75324 14.4187 5.92557 14.2536L5.79688 13.3398L5.66818 12.4261C3.67508 12.7068 2.0772 14.3507 2.0772 16.415H3ZM5.79688 13.3398L6.69425 13.1247C6.65733 12.9707 6.63767 12.8118 6.63765 12.6493L5.71484 12.6494L4.79204 12.6496C4.79209 12.9617 4.82993 13.2648 4.8995 13.555L5.79688 13.3398ZM5.71484 12.6494H6.63765C6.63765 11.4889 7.6467 10.4629 8.99908 10.4628L8.99902 9.54004L8.99897 8.61723C6.72383 8.61737 4.79204 10.3758 4.79204 12.6494H5.71484ZM8.99902 9.54004V10.4628C9.1331 10.4628 9.26445 10.4732 9.39204 10.493L9.5332 9.58105L9.67437 8.66911C9.45436 8.63505 9.22862 8.61723 8.99902 8.61723V9.54004ZM9.5332 9.58105L10.4018 9.89263C10.8142 8.743 11.9141 7.92281 13.2031 7.9228L13.2031 7L13.2031 6.0772C11.111 6.07721 9.33179 7.40946 8.66459 9.26948L9.5332 9.58105Z" fill="black"/>
</svg>
