<svg width="24" height="24" viewBox="0 0 24 24" fill="none" xmlns="http://www.w3.org/2000/svg">
<path d="M19 21H18C18 21.5523 17.5523 22 17 22C16.4477 22 16 21.5523 16 21H8C8 21.5523 7.55228 22 7 22C6.44772 22 6 21.5523 6 21H5V2H19V21ZM7 19H17V4H7V19ZM9 16C9.55228 16 10 16.4477 10 17C10 17.5523 9.55228 18 9 18C8.44772 18 8 17.5523 8 17C8 16.4477 8.44772 16 9 16ZM12 16C12.5523 16 13 16.4477 13 17C13 17.5523 12.5523 18 12 18C11.4477 18 11 17.5523 11 17C11 16.4477 11.4477 16 12 16ZM15 16C15.5523 16 16 16.4477 16 17C16 17.5523 15.5523 18 15 18C14.4477 18 14 17.5523 14 17C14 16.4477 14.4477 16 15 16ZM16 14H8V12H16V14ZM16 11H8V9H16V11ZM15 5C15.5523 5 16 5.44772 16 6C16 6.55228 15.5523 7 15 7C14.4477 7 14 6.55228 14 6C14 5.44772 14.4477 5 15 5Z" fill="black"/>
</svg>
