<svg width="24" height="24" viewBox="0 0 24 24" fill="none" xmlns="http://www.w3.org/2000/svg">
<path d="M12 2C13.247 2 14.4402 2.2295 15.541 2.64648C14.8611 3.03136 14.2787 3.56941 13.8447 4.21582C13.2524 4.07598 12.6351 4 12 4C7.58172 4 4 7.58172 4 12C4 16.4183 7.58172 20 12 20C16.4183 20 20 16.4183 20 12C20 11.8618 19.9962 11.7244 19.9893 11.5879C20.7085 11.2756 21.3396 10.7993 21.8359 10.2061C21.9414 10.7883 22 11.3874 22 12C22 17.5228 17.5228 22 12 22C6.47715 22 2 17.5228 2 12C2 6.47715 6.47715 2 12 2Z" fill="black"/>
<mask id="path-2-inside-1_46_227" fill="white">
<path d="M21.8404 10.2018C21.3711 10.7647 20.7838 11.2175 20.1201 11.5283C19.4564 11.839 18.7325 12 17.9997 12C17.2669 12 16.543 11.8388 15.8793 11.528C15.2157 11.2172 14.6285 10.7643 14.1593 10.2014C13.69 9.63843 13.3503 8.97925 13.1641 8.27046C12.9779 7.56168 12.9498 6.82063 13.0817 6.09977C13.2137 5.37891 13.5024 4.69587 13.9276 4.099C14.3528 3.50212 14.904 3.00601 15.5422 2.64578L16.5711 4.46865C16.2001 4.67808 15.8797 4.96649 15.6325 5.31349C15.3853 5.66048 15.2174 6.05757 15.1407 6.47665C15.064 6.89572 15.0804 7.32654 15.1886 7.73859C15.2969 8.15064 15.4944 8.53387 15.7672 8.86112C16.0399 9.18838 16.3813 9.45168 16.7671 9.63238C17.153 9.81307 17.5738 9.90675 17.9998 9.90677C18.4259 9.9068 18.8467 9.81317 19.2325 9.63252C19.6184 9.45188 19.9598 9.18862 20.2326 8.86139L21.8404 10.2018Z"/>
</mask>
<path d="M21.8404 10.2018C21.3711 10.7647 20.7838 11.2175 20.1201 11.5283C19.4564 11.839 18.7325 12 17.9997 12C17.2669 12 16.543 11.8388 15.8793 11.528C15.2157 11.2172 14.6285 10.7643 14.1593 10.2014C13.69 9.63843 13.3503 8.97925 13.1641 8.27046C12.9779 7.56168 12.9498 6.82063 13.0817 6.09977C13.2137 5.37891 13.5024 4.69587 13.9276 4.099C14.3528 3.50212 14.904 3.00601 15.5422 2.64578L16.5711 4.46865C16.2001 4.67808 15.8797 4.96649 15.6325 5.31349C15.3853 5.66048 15.2174 6.05757 15.1407 6.47665C15.064 6.89572 15.0804 7.32654 15.1886 7.73859C15.2969 8.15064 15.4944 8.53387 15.7672 8.86112C16.0399 9.18838 16.3813 9.45168 16.7671 9.63238C17.153 9.81307 17.5738 9.90675 17.9998 9.90677C18.4259 9.9068 18.8467 9.81317 19.2325 9.63252C19.6184 9.45188 19.9598 9.18862 20.2326 8.86139L21.8404 10.2018Z" stroke="black" stroke-width="4" mask="url(#path-2-inside-1_46_227)"/>
<circle cx="9.5" cy="7.5" r="1.5" fill="black"/>
<circle cx="15.5" cy="14.5" r="1.5" fill="black"/>
<circle cx="12.5" cy="11.5" r="1.5" fill="black"/>
<path d="M9.11712 12C9.11712 12.8284 8.44555 13.5 7.61712 13.5C6.7887 13.5 6.11712 12.8284 6.11712 12C6.11712 11.1716 6.7887 10.5 7.61712 10.5C8.44555 10.5 9.11712 11.1716 9.11712 12Z" fill="black"/>
<path d="M12 15.5C12 16.3284 11.3284 17 10.5 17C9.67157 17 9 16.3284 9 15.5C9 14.6716 9.67157 14 10.5 14C11.3284 14 12 14.6716 12 15.5Z" fill="black"/>
</svg>
