<svg width="24" height="24" viewBox="0 0 24 24" fill="none" xmlns="http://www.w3.org/2000/svg">
<path d="M12 2C13.2465 2 14.4395 2.22881 15.54 2.64551H15.542L16.5713 4.46875C16.2003 4.67814 15.88 4.96655 15.6328 5.31348L15.5439 5.44629C15.3452 5.76044 15.2077 6.10993 15.1406 6.47656C15.0639 6.89553 15.0803 7.32633 15.1885 7.73828C15.2967 8.15034 15.4948 8.53407 15.7676 8.86133C16.0403 9.18844 16.3819 9.45218 16.7676 9.63281C17.1052 9.79084 17.4696 9.88199 17.8408 9.90234L18 9.90723C18.3726 9.90723 18.7412 9.83512 19.0859 9.69629L19.2324 9.63281C19.6182 9.45217 19.9596 9.18853 20.2324 8.86133L21.8408 10.2021C21.8394 10.2039 21.8374 10.2053 21.8359 10.207C21.9413 10.7889 22 11.3877 22 12C22 17.5228 17.5228 22 12 22C6.47715 22 2 17.5228 2 12C2 6.47715 6.47715 2 12 2ZM12 4C7.58172 4 4 7.58172 4 12C4 16.4183 7.58172 20 12 20C16.4183 20 20 16.4183 20 12C20 11.8618 19.9962 11.7244 19.9893 11.5879C20.0148 11.5768 20.0392 11.5632 20.0645 11.5518L19.8682 11.6377C19.2751 11.8766 18.641 12 18 12L17.7256 11.9922C17.1782 11.9621 16.6393 11.8426 16.1309 11.6377L15.8789 11.5283C15.2153 11.2175 14.6283 10.764 14.1592 10.2012C13.7488 9.70874 13.4374 9.14268 13.2412 8.53418L13.1641 8.27051C13.0011 7.65036 12.9596 7.00551 13.04 6.37109L13.082 6.09961C13.1975 5.46908 13.4327 4.86745 13.7744 4.32715L13.9141 4.11816C13.891 4.15075 13.867 4.18266 13.8447 4.21582C13.2524 4.07598 12.6351 4 12 4ZM10.5 14C11.3284 14 12 14.6716 12 15.5C12 16.3284 11.3284 17 10.5 17C9.67157 17 9 16.3284 9 15.5C9 14.6716 9.67157 14 10.5 14ZM15.5 13C16.3284 13 17 13.6716 17 14.5C17 15.3284 16.3284 16 15.5 16C14.6716 16 14 15.3284 14 14.5C14 13.6716 14.6716 13 15.5 13ZM7.61719 10.5C8.44558 10.5 9.11719 11.1716 9.11719 12C9.11719 12.8284 8.44558 13.5 7.61719 13.5C6.78876 13.5 6.11719 12.8284 6.11719 12C6.11719 11.1716 6.78876 10.5 7.61719 10.5ZM12.5 10C13.3284 10 14 10.6716 14 11.5C14 12.3284 13.3284 13 12.5 13C11.6716 13 11 12.3284 11 11.5C11 10.6716 11.6716 10 12.5 10ZM9.5 6C10.3284 6 11 6.67157 11 7.5C11 8.32843 10.3284 9 9.5 9C8.67157 9 8 8.32843 8 7.5C8 6.67157 8.67157 6 9.5 6Z" fill="black"/>
</svg>
