<svg width="24" height="24" viewBox="0 0 24 24" fill="none" xmlns="http://www.w3.org/2000/svg">
<path d="M12 2C17.5228 2 22 6.47715 22 12C22 17.5228 17.5228 22 12 22C6.47715 22 2 17.5228 2 12C2 6.47715 6.47715 2 12 2ZM12 4C7.58172 4 4 7.58172 4 12C4 16.4183 7.58172 20 12 20C16.4183 20 20 16.4183 20 12C20 7.58172 16.4183 4 12 4ZM9.7041 6.45703C10.8004 6.00293 12.007 5.88373 13.1709 6.11523C14.3347 6.34679 15.4032 6.91878 16.2422 7.75781L14.75 9.25L14.5391 9.05371C14.1043 8.67907 13.5921 8.40526 13.0391 8.25195L12.7588 8.18555C12.0044 8.03549 11.2224 8.11194 10.5117 8.40625L10.25 8.52637C9.65175 8.82775 9.13959 9.27919 8.76562 9.83887C8.33824 10.4785 8.11035 11.2307 8.11035 12C8.11035 12.7693 8.33824 13.5215 8.76562 14.1611C9.19302 14.8008 9.80099 15.2994 10.5117 15.5938C11.2224 15.8881 12.0044 15.9645 12.7588 15.8145C13.5133 15.6644 14.206 15.294 14.75 14.75L16.2422 16.2422C15.4032 17.0812 14.3347 17.6532 13.1709 17.8848L12.9521 17.9238C11.9296 18.0882 10.882 17.9846 9.91113 17.624L9.7041 17.543C8.60774 17.0888 7.67003 16.3197 7.01074 15.333C6.35166 14.3464 6 13.1865 6 12C6 10.8874 6.30961 9.79837 6.8916 8.85352L7.01074 8.66699C7.62876 7.74206 8.49141 7.0082 9.5 6.5459L9.7041 6.45703Z" fill="black"/>
</svg>
