<svg width="24" height="24" viewBox="0 0 24 24" fill="none" xmlns="http://www.w3.org/2000/svg">
<circle cx="12" cy="12" r="9" stroke="black" stroke-width="2"/>
<mask id="path-2-inside-1_47_235" fill="white">
<path d="M16.2426 7.75736C15.4035 6.91824 14.3344 6.3468 13.1705 6.11529C12.0067 5.88378 10.8003 6.0026 9.7039 6.45672C8.60754 6.91085 7.67047 7.67988 7.01118 8.66658C6.35189 9.65327 6 10.8133 6 12C6 13.1867 6.35189 14.3467 7.01118 15.3334C7.67047 16.3201 8.60754 17.0892 9.7039 17.5433C10.8003 17.9974 12.0067 18.1162 13.1705 17.8847C14.3344 17.6532 15.4035 17.0818 16.2426 16.2426L14.7503 14.7503C14.2064 15.2943 13.5133 15.6648 12.7588 15.8148C12.0043 15.9649 11.2223 15.8879 10.5115 15.5935C9.8008 15.2991 9.19333 14.8006 8.76594 14.1609C8.33855 13.5213 8.11043 12.7693 8.11043 12C8.11043 11.2307 8.33855 10.4787 8.76594 9.83907C9.19333 9.19943 9.8008 8.7009 10.5115 8.40651C11.2223 8.11211 12.0043 8.03509 12.7588 8.18517C13.5133 8.33525 14.2064 8.70569 14.7503 9.24966L16.2426 7.75736Z"/>
</mask>
<path d="M16.2426 7.75736C15.4035 6.91824 14.3344 6.3468 13.1705 6.11529C12.0067 5.88378 10.8003 6.0026 9.7039 6.45672C8.60754 6.91085 7.67047 7.67988 7.01118 8.66658C6.35189 9.65327 6 10.8133 6 12C6 13.1867 6.35189 14.3467 7.01118 15.3334C7.67047 16.3201 8.60754 17.0892 9.7039 17.5433C10.8003 17.9974 12.0067 18.1162 13.1705 17.8847C14.3344 17.6532 15.4035 17.0818 16.2426 16.2426L14.7503 14.7503C14.2064 15.2943 13.5133 15.6648 12.7588 15.8148C12.0043 15.9649 11.2223 15.8879 10.5115 15.5935C9.8008 15.2991 9.19333 14.8006 8.76594 14.1609C8.33855 13.5213 8.11043 12.7693 8.11043 12C8.11043 11.2307 8.33855 10.4787 8.76594 9.83907C9.19333 9.19943 9.8008 8.7009 10.5115 8.40651C11.2223 8.11211 12.0043 8.03509 12.7588 8.18517C13.5133 8.33525 14.2064 8.70569 14.7503 9.24966L16.2426 7.75736Z" stroke="black" stroke-width="4" mask="url(#path-2-inside-1_47_235)"/>
</svg>
