<svg width="24" height="24" viewBox="0 0 24 24" fill="none" xmlns="http://www.w3.org/2000/svg">
<path d="M12.9229 19.5088L15.9229 16.5088L17.3369 17.9229L11.9229 23.3369L6.50879 17.9229L7.92285 16.5088L10.9229 19.5088V10.9229H12.9229V19.5088ZM13.3691 1.00586C15.6069 1.11702 17.4403 2.7546 17.8555 4.89844C20.2145 5.43581 21.9744 7.54563 21.9746 10.0674L21.9688 10.3271C21.8543 12.701 20.1782 14.6606 17.9463 15.2109V15.3701H14.9229V13.5244H16.7773L16.9502 13.5107C18.7292 13.3698 20.1289 11.8822 20.1289 10.0674C20.1287 8.25163 18.7279 6.76277 16.9482 6.62305L16.1221 6.55859L16.0977 5.73047C16.0504 4.1292 14.7384 2.8457 13.126 2.8457C11.837 2.84572 10.7366 3.6658 10.3242 4.81543L10.0674 5.53223L9.31445 5.41602C9.18699 5.39631 9.05581 5.38574 8.92188 5.38574C7.56953 5.38585 6.56055 6.41181 6.56055 7.57227L6.5752 7.81348C6.58473 7.89261 6.59876 7.97099 6.61719 8.04785L6.85352 9.03516L5.84863 9.17676C4.6763 9.34186 3.8457 10.2816 3.8457 11.3379L3.85742 11.5518C3.97129 12.6118 4.92133 13.5069 6.1748 13.5225L6.32617 13.5244H8.92285V15.3701H5.24023V15.2588C3.41119 14.8442 2.00005 13.2807 2 11.3379C2 9.58702 3.14972 8.13914 4.71484 7.56836C4.71704 5.31094 6.62375 3.56309 8.87891 3.54102C9.69186 2.02941 11.2876 1.00001 13.126 1L13.3691 1.00586Z" fill="black"/>
</svg>
