<svg width="24" height="24" viewBox="0 0 24 24" fill="none" xmlns="http://www.w3.org/2000/svg">
<path d="M16.333 3C19.4626 3 22 5.53738 22 8.66699V9.66699H20V8.66699C20 6.64195 18.3581 5 16.333 5H9.30273C7.00126 5.00001 5.17442 6.93784 5.30957 9.23535L5.49805 12.4414L5.5 12.4707V16.5713L5.49023 16.6416L4.99023 20.1416L4.84863 21.1318L2.86816 20.8486L3.00977 19.8584L3.5 16.4268V12.5244L3.31348 9.35254C3.11075 5.90627 5.85051 3.00001 9.30273 3H16.333ZM17.75 21H15.75V9H9.25V21H7.25V7H17.75V21ZM13 21H11V11H13V21ZM22 21H20V12.333H22V21Z" fill="black"/>
</svg>
