<svg width="24" height="24" viewBox="0 0 24 24" fill="none" xmlns="http://www.w3.org/2000/svg">
<path d="M9.1416 3.00977L12.6416 3.50977L15.9893 3.98828L18.8359 3.51367L20 3.31934V12.3467L19.1641 12.4863L16.0117 13.0117L15.8584 12.9902L12.3584 12.4902L9.00977 12.0117L7 12.3467V21H5V3.65332L5.83594 3.51367L8.98828 2.98828L9.1416 3.00977ZM7 5.34668V10.3193L8.83594 10.0137L8.98828 9.98828L9.1416 10.0098L12.6416 10.5098L15.9893 10.9873L18 10.6523V5.67969L16.1641 5.98633L16.0117 6.01172L15.8584 5.99023L12.3584 5.49023L9.00977 5.01172L7 5.34668Z" fill="black"/>
</svg>
