<svg width="24" height="24" viewBox="0 0 24 24" fill="none" xmlns="http://www.w3.org/2000/svg">
<path d="M18.2178 2.05243C19.3812 1.47114 20.7498 2.31729 20.75 3.61786V4.99969H22V10.9997H20V21.9997H4V10.9997H2V4.99969H3.25V3.61786C3.25022 2.31729 4.61884 1.47114 5.78223 2.05243L11.6768 4.99969H12.3232L18.2178 2.05243ZM6 19.9997H11V10.9997H6V19.9997ZM13 19.9997H18V10.9997H13V19.9997ZM4 8.99969H11V6.99969H4V8.99969ZM13 8.99969H20V6.99969H13V8.99969ZM19.25 3.61786C19.2498 3.43236 19.0547 3.31162 18.8887 3.39423L15.6777 4.99969H19.25V3.61786ZM5.11133 3.39423C4.9453 3.31162 4.75022 3.43236 4.75 3.61786V4.99969H8.32227L5.11133 3.39423Z" fill="black"/>
</svg>
