<svg width="24" height="24" viewBox="0 0 24 24" fill="none" xmlns="http://www.w3.org/2000/svg">
<g clip-path="url(#clip0_49_329)">
<path d="M8.016 12.42C8.016 13.292 8.102 14.06 8.274 14.724C8.446 15.384 8.7 15.938 9.036 16.386C9.372 16.834 9.788 17.172 10.284 17.4C10.78 17.624 11.352 17.736 12 17.736C12.56 17.736 13.078 17.662 13.554 17.514C14.03 17.366 14.446 17.154 14.802 16.878C15.158 16.602 15.444 16.266 15.66 15.87C15.876 15.474 16.002 15.028 16.038 14.532H11.838V11.82H20.25V21H16.122V17.01C15.886 17.682 15.58 18.288 15.204 18.828C14.832 19.364 14.4 19.82 13.908 20.196C13.42 20.572 12.88 20.86 12.288 21.06C11.696 21.26 11.064 21.36 10.392 21.36C9.736 21.36 9.112 21.264 8.52 21.072C7.928 20.88 7.378 20.602 6.87 20.238C6.362 19.874 5.904 19.43 5.496 18.906C5.088 18.382 4.74 17.79 4.452 17.13C4.164 16.466 3.942 15.74 3.786 14.952C3.63 14.16 3.552 13.316 3.552 12.42C3.552 11.516 3.646 10.668 3.834 9.876C4.026 9.084 4.298 8.358 4.65 7.698C5.002 7.034 5.428 6.442 5.928 5.922C6.432 5.398 6.996 4.956 7.62 4.596C8.248 4.232 8.93 3.956 9.666 3.768C10.406 3.576 11.186 3.48 12.006 3.48C12.69 3.48 13.348 3.55 13.98 3.69C14.616 3.826 15.214 4.026 15.774 4.29C16.334 4.554 16.852 4.88 17.328 5.268C17.808 5.652 18.234 6.09 18.606 6.582C18.978 7.074 19.292 7.618 19.548 8.214C19.804 8.81 19.99 9.452 20.106 10.14H15.714C15.598 9.644 15.426 9.212 15.198 8.844C14.974 8.476 14.702 8.17 14.382 7.926C14.066 7.678 13.708 7.494 13.308 7.374C12.908 7.25 12.476 7.188 12.012 7.188C11.368 7.188 10.798 7.3 10.302 7.524C9.806 7.748 9.388 8.08 9.048 8.52C8.708 8.956 8.45 9.5 8.274 10.152C8.102 10.804 8.016 11.56 8.016 12.42Z" fill="black"/>
</g>
<defs>
<clipPath id="clip0_49_329">
<rect width="24" height="24" fill="white"/>
</clipPath>
</defs>
</svg>
