<svg width="24" height="26" viewBox="0 0 24 26" fill="none" xmlns="http://www.w3.org/2000/svg">
<g clip-path="url(#clip0_50_342)">
<path d="M4 16H9C10.6569 16 12 14.6569 12 13V8" stroke="black" stroke-width="2" stroke-linecap="square"/>
<path d="M7 11L13 17" stroke="black" stroke-width="2" stroke-linecap="square"/>
<path d="M15 8H3" stroke="black" stroke-width="2" stroke-linecap="square"/>
<path d="M8.5 8V6" stroke="black" stroke-width="2" stroke-linecap="square"/>
<path d="M17.59 22.27C16.426 22.27 15.478 22.036 14.746 21.568C14.014 21.1 13.546 20.422 13.342 19.534L15.61 18.922C15.706 19.474 15.934 19.876 16.294 20.128C16.654 20.38 17.092 20.506 17.608 20.506C18.052 20.506 18.412 20.392 18.688 20.164C18.976 19.924 19.12 19.654 19.12 19.354C19.12 18.946 18.964 18.634 18.652 18.418C18.34 18.202 17.746 18.016 16.87 17.86C15.814 17.68 15.01 17.314 14.458 16.762C13.918 16.198 13.648 15.514 13.648 14.71C13.648 14.098 13.81 13.564 14.134 13.108C14.458 12.64 14.902 12.28 15.466 12.028C16.042 11.776 16.708 11.65 17.464 11.65C18.544 11.65 19.414 11.842 20.074 12.226C20.746 12.61 21.214 13.222 21.478 14.062L19.282 14.836C19.138 14.296 18.91 13.924 18.598 13.72C18.286 13.516 17.902 13.414 17.446 13.414C17.062 13.414 16.744 13.504 16.492 13.684C16.24 13.852 16.114 14.086 16.114 14.386C16.114 14.722 16.258 14.992 16.546 15.196C16.846 15.4 17.392 15.58 18.184 15.736C19.324 15.964 20.17 16.348 20.722 16.888C21.274 17.416 21.55 18.124 21.55 19.012C21.55 20.044 21.202 20.848 20.506 21.424C19.81 21.988 18.838 22.27 17.59 22.27Z" fill="black"/>
</g>
<defs>
<clipPath id="clip0_50_342">
<rect width="24" height="26" fill="white"/>
</clipPath>
</defs>
</svg>
