<svg width="24" height="26" viewBox="0 0 24 26" fill="none" xmlns="http://www.w3.org/2000/svg">
<path d="M17.4639 11.6504C18.5439 11.6504 19.4142 11.8416 20.0742 12.2256C20.7461 12.6095 21.2135 13.2218 21.4775 14.0615L19.2822 14.8359C19.1382 14.2959 18.9097 13.9237 18.5977 13.7197C18.2858 13.5159 17.902 13.4141 17.4463 13.4141C17.0624 13.4141 16.7441 13.5037 16.4922 13.6836C16.2403 13.8515 16.1143 14.0859 16.1143 14.3857C16.1143 14.7217 16.2579 14.9923 16.5459 15.1963C16.8459 15.4002 17.3918 15.5804 18.1836 15.7363C19.3234 15.9643 20.1697 16.3479 20.7217 16.8877C21.2736 17.4156 21.5497 18.1239 21.5498 19.0117C21.5498 20.0437 21.2019 20.8478 20.5059 21.4238C19.8099 21.9878 18.8378 22.2695 17.5898 22.2695C16.426 22.2695 15.478 22.0362 14.7461 21.5684C14.0141 21.1004 13.5458 20.4221 13.3418 19.5342L15.6104 18.9219C15.7063 19.4738 15.934 19.8759 16.2939 20.1279C16.6539 20.3799 17.0924 20.5059 17.6084 20.5059C18.0522 20.5058 18.4126 20.392 18.6885 20.1641C18.9763 19.9241 19.1201 19.6534 19.1201 19.3535C19.12 18.9458 18.9641 18.6339 18.6523 18.418C18.3404 18.202 17.746 18.0163 16.8701 17.8604C15.8141 17.6804 15.01 17.3137 14.458 16.7617C13.9181 16.1977 13.6484 15.5139 13.6484 14.71C13.6484 14.0981 13.81 13.5643 14.1338 13.1084C14.4577 12.6405 14.9019 12.2803 15.4658 12.0283C16.0418 11.7763 16.7079 11.6504 17.4639 11.6504ZM9.5 7H16V9H13V13C13 13.7417 12.7971 14.4358 12.4453 15.0312L14.4141 17L13 18.4141L11.0312 16.4453C10.4358 16.7971 9.74175 17 9 17H3V15H9C9.17857 15 9.35088 14.9736 9.51562 14.9297L5.58594 11L7 9.58594L10.9297 13.5156C10.9736 13.3509 11 13.1786 11 13V9H2V7H7.5V5H9.5V7Z" fill="black"/>
</svg>
