<svg width="24" height="24" viewBox="0 0 24 24" fill="none" xmlns="http://www.w3.org/2000/svg">
<path d="M12.8281 2C17.3412 2.00023 20.9998 5.65878 21 10.1719C21 12.5972 19.9227 14.8975 18.0596 16.4502L12 21.5L5.94043 16.4502C4.07731 14.8975 3 12.5972 3 10.1719C3.00023 5.65878 6.65878 2.00023 11.1719 2H12.8281ZM11.1719 4C7.76334 4.00023 5.00023 6.76334 5 10.1719C5 12.0037 5.81351 13.7414 7.2207 14.9141L12 18.8965L16.7793 14.9141C18.1865 13.7414 19 12.0037 19 10.1719C18.9998 6.76334 16.2367 4.00023 12.8281 4H11.1719ZM12 6C14.2091 6 16 7.79086 16 10C16 12.2091 14.2091 14 12 14C9.79086 14 8 12.2091 8 10C8 7.79086 9.79086 6 12 6ZM12 8C10.8954 8 10 8.89543 10 10C10 11.1046 10.8954 12 12 12C13.1046 12 14 11.1046 14 10C14 8.89543 13.1046 8 12 8Z" fill="black"/>
</svg>
