<svg width="24" height="24" viewBox="0 0 24 24" fill="none" xmlns="http://www.w3.org/2000/svg">
<path d="M8.3877 3.07812L12.3877 4.7627L12.4004 4.76758L12.4131 4.77344L16.041 6.4209L20.6582 4.74414L22 4.25684V19.0342L21.3193 19.2637L16.3193 20.9473L15.9609 21.0684L15.6123 20.9219L11.6123 19.2373L11.5996 19.2324L11.5869 19.2266L7.95801 17.5781L3.3418 19.2559L2 19.7432V4.96582L2.68066 4.73633L7.68066 3.05273L8.03906 2.93164L8.3877 3.07812ZM17 8.2002V18.6074L20 17.5967V7.11035L17 8.2002ZM9 15.8555L12.4111 17.4043L15 18.4941V8.14355L11.5869 6.59473H11.5859L9 5.50488V15.8555ZM4 6.40234V16.8887L7 15.7988V5.39062L4 6.40234Z" fill="black"/>
</svg>
