<svg width="24" height="24" viewBox="0 0 24 24" fill="none" xmlns="http://www.w3.org/2000/svg">
<path d="M16.7168 3.02344L21.2168 4.02344L22 4.19824V20.2471L20.7832 19.9766L16.5 19.0244L12.2168 19.9766L12 20.0244L11.7832 19.9766L7.5 19.0244L3.2168 19.9766L2 20.2471V4.19824L2.7832 4.02344L7.2832 3.02344L7.5 2.97559L7.7168 3.02344L12 3.97559L16.2832 3.02344L16.5 2.97559L16.7168 3.02344ZM4 5.80176V17.7529L7.2832 17.0234L7.5 16.9756L7.7168 17.0234L11 17.7529V5.80176L7.5 5.02441L4 5.80176ZM13 5.80176V17.7529L16.2832 17.0234L16.5 16.9756L16.7168 17.0234L20 17.7529V5.80176L16.5 5.02441L13 5.80176Z" fill="black"/>
</svg>
