<svg width="24" height="24" viewBox="0 0 24 24" fill="none" xmlns="http://www.w3.org/2000/svg">
<path d="M9.26202 3.17969L8.47101 3.79102C6.76099 5.11239 4.74426 7.52133 4.16437 10.4092C3.60432 13.1985 4.34247 16.6413 8.513 20.2432L9.26984 20.8965L7.96222 22.4102L7.20538 21.7568C2.57605 17.7587 1.48018 13.6179 2.20343 10.0156C2.90689 6.51214 5.29085 3.72097 7.24738 2.20898L8.03937 1.59766L9.26202 3.17969ZM16.471 2.20898C18.4275 3.721 20.8115 6.51218 21.515 10.0156C22.2382 13.6179 21.1422 17.7588 16.513 21.7568L15.7562 22.4102L14.4485 20.8965L15.2054 20.2432C19.3758 16.6414 20.114 13.1985 19.554 10.4092C18.9742 7.52137 16.9574 5.11242 15.2474 3.79102L14.4564 3.17969L15.679 1.59766L16.471 2.20898Z" fill="black"/>
</svg>
