<svg width="24" height="24" viewBox="0 0 24 24" fill="none" xmlns="http://www.w3.org/2000/svg">
<path d="M22 9.0127L13 10.0127V18.6172C13 20.5502 11.433 22.1172 9.5 22.1172C7.567 22.1172 6 20.5502 6 18.6172C6.00005 16.6842 7.56703 15.1172 9.5 15.1172C10.0368 15.1172 10.5454 15.2382 11 15.4541V3.22266L22 2V9.0127ZM9.5 17.1172C8.6716 17.1172 8.00005 17.7888 8 18.6172C8 19.4456 8.67157 20.1172 9.5 20.1172C10.3284 20.1172 11 19.4456 11 18.6172C10.9999 17.7888 10.3284 17.1172 9.5 17.1172ZM9 13H1V11H9V13ZM9 9H1V7H9V9ZM13 5.0127V8L20 7.22266V4.23438L13 5.0127ZM9 5H1V3H9V5Z" fill="black"/>
</svg>
