<svg width="24" height="24" viewBox="0 0 24 24" fill="none" xmlns="http://www.w3.org/2000/svg">
<path d="M17 4C18.6569 4 20 5.34315 20 7C20 8.65685 18.6569 10 17 10C16.2775 10 15.6145 9.74478 15.0967 9.31934L10.9395 11.3975C10.9791 11.5921 11 11.7936 11 12C11 12.3522 10.9357 12.689 10.8242 13.0029L14.9023 14.8564C15.4433 14.327 16.1832 14 17 14C18.6569 14 20 15.3431 20 17C20 18.6569 18.6569 20 17 20C15.3431 20 14 18.6569 14 17C14 16.8824 14.0073 16.7664 14.0205 16.6523L9.49609 14.5967C9.0553 14.8512 8.54557 15 8 15C6.34315 15 5 13.6569 5 12C5 10.3431 6.34315 9 8 9C8.722 9 9.38467 9.25477 9.90234 9.67969L14.0596 7.60156C14.02 7.40726 14 7.20598 14 7C14 5.34315 15.3431 4 17 4ZM17 16C16.4477 16 16 16.4477 16 17C16 17.5523 16.4477 18 17 18C17.5523 18 18 17.5523 18 17C18 16.4477 17.5523 16 17 16ZM8 11C7.44772 11 7 11.4477 7 12C7 12.5523 7.44772 13 8 13C8.55228 13 9 12.5523 9 12C9 11.4477 8.55228 11 8 11ZM17 6C16.4477 6 16 6.44772 16 7C16 7.55228 16.4477 8 17 8C17.5523 8 18 7.55228 18 7C18 6.44772 17.5523 6 17 6Z" fill="black"/>
</svg>
