<svg width="24" height="24" viewBox="0 0 24 24" fill="none" xmlns="http://www.w3.org/2000/svg">
<path d="M12.8135 3.64258L15.1182 8.88086L20.3574 11.1865L22.208 12L20.3574 12.8135L15.1182 15.1182L12.8135 20.3574L12 22.208L11.1865 20.3574L8.88086 15.1182L3.64258 12.8135L1.79199 12L3.64258 11.1865L8.88086 8.88086L11.1865 3.64258L12 1.79199L12.8135 3.64258ZM6.49512 17.4951H8V18.4951H6.49512V20H5.49512V18.4951H4V17.4951H5.49512V16H6.49512V17.4951ZM10.3701 9.91406L10.2305 10.2305L9.91406 10.3701L6.20703 12L9.91406 13.6299L10.2305 13.7695L10.3701 14.0859L12 17.792L13.6299 14.0859L13.7695 13.7695L14.0859 13.6299L17.792 12L14.0859 10.3701L13.7695 10.2305L13.6299 9.91406L12 6.20703L10.3701 9.91406ZM18.4951 5.49512H20V6.49512H18.4951V8H17.4951V6.49512H16V5.49512H17.4951V4H18.4951V5.49512Z" fill="black"/>
</svg>
