<svg width="21" height="21" viewBox="0 0 21 21" fill="none" xmlns="http://www.w3.org/2000/svg">
<path d="M9.5063 1.76898C9.7383 0.743551 11.2001 0.743558 11.4321 1.76898C11.8866 3.78125 14.1955 4.73838 15.9399 3.63715C16.8292 3.07557 17.8628 4.10916 17.3012 4.99847C16.2 6.74284 17.1571 9.05175 19.1694 9.50629C20.1948 9.73828 20.1948 11.2001 19.1694 11.4321C17.1571 11.8866 16.2 14.1955 17.3012 15.9399C17.8628 16.8292 16.8292 17.8628 15.9399 17.3012C14.1955 16.2 11.8866 17.1571 11.4321 19.1694C11.2001 20.1948 9.7383 20.1948 9.5063 19.1694C9.05176 17.1571 6.74285 16.2 4.99849 17.3012C4.10917 17.8628 3.07558 16.8292 3.63716 15.9399C4.73839 14.1955 3.78126 11.8866 1.769 11.4321C0.743571 11.2001 0.743566 9.73828 1.769 9.50629C3.78127 9.05175 4.73839 6.74284 3.63716 4.99847C3.07558 4.10916 4.10917 3.07556 4.99849 3.63715C6.74285 4.73838 9.05176 3.78125 9.5063 1.76898Z" stroke="black" stroke-width="2"/>
</svg>
