<svg width="24" height="24" viewBox="0 0 24 24" fill="none" xmlns="http://www.w3.org/2000/svg">
<path d="M11 19.75V22H13V19.75H11Z" fill="black"/>
<path d="M11 2V4.25H13V2H11Z" fill="black"/>
<path fill-rule="evenodd" clip-rule="evenodd" d="M6 12C6 8.68629 8.68629 6 12 6C15.3137 6 18 8.68629 18 12C18 15.3137 15.3137 18 12 18C8.68629 18 6 15.3137 6 12ZM12 8C9.79086 8 8 9.79086 8 12C8 14.2091 9.79086 16 12 16C14.2091 16 16 14.2091 16 12C16 9.79086 14.2091 8 12 8Z" fill="black"/>
<path d="M2 11H4.25V13H2V11Z" fill="black"/>
<path d="M19.75 11H22V13H19.75V11Z" fill="black"/>
<path d="M5.63602 4.2218L7.22701 5.81279L5.81279 7.227L4.2218 5.63601L5.63602 4.2218Z" fill="black"/>
<path d="M18.1872 16.773L19.7782 18.364L18.364 19.7782L16.773 18.1872L18.1872 16.773Z" fill="black"/>
<path d="M5.81279 16.773L4.2218 18.364L5.63601 19.7782L7.227 18.1872L5.81279 16.773Z" fill="black"/>
<path d="M18.364 4.2218L16.773 5.81279L18.1872 7.227L19.7782 5.63601L18.364 4.2218Z" fill="black"/>
</svg>
