<svg width="24" height="24" viewBox="0 0 24 24" fill="none" xmlns="http://www.w3.org/2000/svg">
<path d="M6.5 18C7.32843 18 8 18.6716 8 19.5C8 20.3284 7.32843 21 6.5 21C5.67157 21 5 20.3284 5 19.5C5 18.6716 5.67157 18 6.5 18ZM18.5 18C19.3284 18 20 18.6716 20 19.5C20 20.3284 19.3284 21 18.5 21C17.6716 21 17 20.3284 17 19.5C17 18.6716 17.6716 18 18.5 18ZM6.99707 2.92285L7.2334 6H21.2471L20.9766 7.2168L18.9766 16.2168L18.8018 17H6.07422L6.00293 16.0771L5.31055 7.07715L5.07422 4H3V2H6.92578L6.99707 2.92285ZM7.92578 15H17.1973L18.7529 8H7.3877L7.92578 15Z" fill="black"/>
</svg>
