<svg width="20" height="13" viewBox="0 0 20 13" fill="none" xmlns="http://www.w3.org/2000/svg">
<path d="M19.7529 1.31641L16.7334 4.76562C16.8481 4.87007 16.9611 4.97675 17.0713 5.08691C18.9467 6.96228 20 9.50604 20 12.1582H0C4.00466e-07 9.50604 1.05335 6.96228 2.92871 5.08691C3.02661 4.98902 3.12706 4.89416 3.22852 4.80078L0.292969 1.86523L1.70703 0.451172L4.84473 3.58887C6.38845 2.66034 8.16844 2.1582 10 2.1582C11.8188 2.1582 13.5868 2.65319 15.123 3.56934L18.2471 0L19.7529 1.31641ZM10 4.1582C7.87827 4.1582 5.84306 5.00069 4.34277 6.50098C3.32374 7.52001 2.60921 8.78623 2.25488 10.1582H17.7451C17.3908 8.78623 16.6763 7.52001 15.6572 6.50098C14.1569 5.00069 12.1217 4.1582 10 4.1582ZM7 8.1582H5V6.1582H7V8.1582ZM15 8.1582H13V6.1582H15V8.1582Z" fill="black"/>
</svg>
