<svg width="24" height="24" viewBox="0 0 24 24" fill="none" xmlns="http://www.w3.org/2000/svg">
<path d="M3 15H9.76923L14 18V6L9.76923 9H3V15Z" stroke="black" stroke-width="2"/>
<mask id="path-2-inside-1_55_68" fill="white">
<path d="M16 7C17.3261 7 18.5979 7.52678 19.5355 8.46447C20.4732 9.40215 21 10.6739 21 12C21 13.3261 20.4732 14.5979 19.5355 15.5355C18.5979 16.4732 17.3261 17 16 17L16 14.9987C16.7953 14.9987 17.558 14.6828 18.1204 14.1204C18.6828 13.558 18.9987 12.7953 18.9987 12C18.9987 11.2047 18.6828 10.442 18.1204 9.8796C17.558 9.31724 16.7953 9.00131 16 9.00131L16 7Z"/>
</mask>
<path d="M16 7C17.3261 7 18.5979 7.52678 19.5355 8.46447C20.4732 9.40215 21 10.6739 21 12C21 13.3261 20.4732 14.5979 19.5355 15.5355C18.5979 16.4732 17.3261 17 16 17L16 14.9987C16.7953 14.9987 17.558 14.6828 18.1204 14.1204C18.6828 13.558 18.9987 12.7953 18.9987 12C18.9987 11.2047 18.6828 10.442 18.1204 9.8796C17.558 9.31724 16.7953 9.00131 16 9.00131L16 7Z" stroke="black" stroke-width="4" mask="url(#path-2-inside-1_55_68)"/>
</svg>
