<svg width="100" height="100" viewBox="0 0 100 100" fill="none" xmlns="http://www.w3.org/2000/svg">
<path d="M48.0633 9.76262C48.3442 7.41246 51.755 7.41246 52.036 9.76262L55.4071 37.9726L68.8553 27.455C70.7147 26.0006 73.1173 28.4033 71.6629 30.2626L60.5252 44.4999L90.3368 48.0634C92.6868 48.3443 92.6868 51.754 90.3368 52.0351L61.2274 55.5146L71.6629 68.8554C73.1167 70.7146 70.7145 73.1168 68.8553 71.663L55.5145 61.2275L52.036 90.3368C51.755 92.6869 48.3443 92.6869 48.0633 90.3368L44.4998 60.5243L30.2625 71.663C28.4032 73.1174 26.0007 70.7147 27.4549 68.8554L37.9735 55.4071L9.76253 52.0351C7.41252 51.754 7.41246 48.3444 9.76253 48.0634L38.6756 44.6073L27.4549 30.2626C26.0005 28.4032 28.4032 26.0006 30.2625 27.455L44.6073 38.6757L48.0633 9.76262Z" fill="url(#paint0_linear_93_49)"/>
<defs>
<linearGradient id="paint0_linear_93_49" x1="50.0496" y1="8" x2="50.0496" y2="92.0994" gradientUnits="userSpaceOnUse">
<stop stop-color="white"/>
<stop offset="0.447115" stop-color="#FF7B91"/>
<stop offset="1" stop-color="#FF3AF2"/>
</linearGradient>
</defs>
</svg>
