<?xml version="1.0" standalone="no"?>
<!DOCTYPE svg PUBLIC "-//W3C//DTD SVG 1.1//EN" "http://www.w3.org/Graphics/SVG/1.1/DTD/svg11.dtd">
<svg xmlns="http://www.w3.org/2000/svg" width="1136" height="773" viewBox="0 0 1136 773" fill="none">
<path d="M523.388 388.106C535.038 376.417 558.523 356.547 559.258 370.573C560.178 388.106 537.184 433.322 559.258 413.021C581.333 392.72 608.006 356.732 609.845 370.573C611.685 384.414 614.444 388.106 640.198 363.19" stroke="black" stroke-width="5" stroke-linecap="round"/>
<path d="M76.4448 588.003C80.7413 593.846 94.4899 605.223 115.113 603.986" stroke="black" stroke-width="5" stroke-linecap="round"/>
<path d="M335.262 613.782C314.879 624.915 255.231 635.468 179.29 588.987C178.86 588.723 178.306 588.795 177.986 589.184C164.013 606.167 122.117 642.816 67.1647 647.294C51.1818 648.596 39.8395 640.591 58.3997 633.889C68.7115 630.165 76.4451 627.702 80.0538 624.093" stroke="black" stroke-width="5" stroke-linecap="round"/>
<path d="M50.1507 638.529C39.8393 643.341 26.4344 646.572 24.3721 637.498C21.7943 626.155 40.3548 628.218 47.5727 622.546" stroke="black" stroke-width="5" stroke-linecap="round"/>
<path d="M22.8258 638.014C5.29646 643.169 -2.83872 627.645 12.5145 619.969C26.9505 612.751 39.3241 615.328 48.6044 604.501" stroke="black" stroke-width="5" stroke-linecap="round"/>
<path d="M7.35831 623.576C3.40558 620.139 -1.30331 611.305 11.4829 603.469C27.4656 593.673 102.224 560.676 92.9433 534.382C90.2141 526.649 75.4139 527.166 63.0401 511.182C53.8494 499.31 63.0401 485.403 74.3827 493.137C77.3043 495.372 95.315 507.058 104.801 502.933C116.631 497.79 155.655 493.16 183.483 528.456C183.612 528.62 183.782 528.741 183.982 528.8C206.815 535.501 257.719 545.357 281.127 531.805" stroke="black" stroke-width="5" stroke-linecap="round"/>
<path d="M105.833 550.882C112.191 556.897 130.064 559.131 141.407 548.304" stroke="black" stroke-width="5" stroke-linecap="round"/>
<path d="M1059.55 581.871C1055.26 587.714 1041.51 599.091 1020.89 597.854" stroke="black" stroke-width="5" stroke-linecap="round"/>
<path d="M800.738 607.65C821.121 618.784 880.769 629.337 956.71 582.855C957.14 582.592 957.694 582.664 958.014 583.053C971.987 600.036 1013.88 636.685 1068.84 641.162C1084.82 642.465 1096.16 634.46 1077.6 627.758C1067.29 624.034 1059.55 621.571 1055.95 617.962" stroke="black" stroke-width="5" stroke-linecap="round"/>
<path d="M1085.85 632.397C1096.16 637.209 1109.57 640.44 1111.63 631.366C1114.21 620.024 1095.64 622.086 1088.43 616.415" stroke="black" stroke-width="5" stroke-linecap="round"/>
<path d="M1113.17 631.882C1130.7 637.038 1138.84 621.514 1123.49 613.837C1109.05 606.619 1096.68 609.197 1087.4 598.37" stroke="black" stroke-width="5" stroke-linecap="round"/>
<path d="M1128.64 617.445C1132.59 614.008 1137.3 605.174 1124.52 597.337C1108.53 587.541 1033.78 554.545 1043.06 528.251C1045.79 520.518 1060.59 521.034 1072.96 505.051C1082.15 493.179 1072.96 479.272 1061.62 487.006C1058.7 489.24 1040.69 500.926 1031.2 496.802C1019.37 491.658 980.345 487.028 952.517 522.325C952.388 522.488 952.218 522.61 952.018 522.668C929.185 529.37 878.281 539.226 854.873 525.674" stroke="black" stroke-width="5" stroke-linecap="round"/>
<path d="M1030.17 544.75C1023.81 550.765 1005.94 552.999 994.593 542.172" stroke="black" stroke-width="5" stroke-linecap="round"/>
<path d="M512.837 176.36C516.729 220.743 536.649 299.019 585.018 302.053C635.968 305.248 657.198 201.924 657.198 175.294" stroke="black" stroke-width="5" stroke-linecap="round"/>
<path d="M522.118 174.263L507.682 172.201" stroke="black" stroke-width="5" stroke-linecap="round"/>
<path d="M662.669 172.201C678.305 176.133 690.602 193.22 653.073 225.821" stroke="black" stroke-width="5" stroke-linecap="round"/>
<path d="M506.068 172.201C492.439 173.988 478.093 194.721 520.056 225.821" stroke="black" stroke-width="5" stroke-linecap="round"/>
<ellipse cx="548.928" cy="180.966" rx="9.2803" ry="8.76473" fill="black"/>
<circle cx="619.561" cy="180.966" r="8.76473" fill="black"/>
<circle cx="549.959" cy="180.45" r="29.4655" stroke="black" stroke-width="5"/>
<path d="M647.479 180.45C647.479 196.762 634.48 209.916 618.53 209.916C602.579 209.916 589.58 196.762 589.58 180.45C589.58 164.139 602.579 150.985 618.53 150.985C634.48 150.985 647.479 164.139 647.479 180.45Z" stroke="black" stroke-width="5"/>
<path d="M577.8 177.357H590.174" stroke="black" stroke-width="5" stroke-linecap="round"/>
<path d="M572.795 196.949C570.114 211.814 569.815 236.495 596.36 222.904" stroke="black" stroke-width="5" stroke-linecap="round"/>
<path d="M566.457 254.692C572.128 251.58 586.874 247.222 600.485 254.692" stroke="black" stroke-width="5" stroke-linecap="round"/>
<path d="M644.824 172.201H662.354" stroke="black" stroke-width="5" stroke-linecap="round"/>
<path d="M504.205 86.1269C450.1 111.603 475.321 156.187 494.694 175.295C498.076 172.747 508.784 172.11 513.715 172.11C504.416 104.173 539.428 86.1263 554.927 81.8802C598.253 74.4495 647.919 86.1269 656.373 120.096C666.472 160.674 666.789 174.233 674.639 175.295C704.47 151.517 700.071 105.942 694.143 86.1269C701.877 63.9934 684.603 44.0198 674.639 31.9893C664.676 19.9587 637.352 -1.97999 588.742 0.143634C492.58 9.69732 498.921 69.1425 504.205 86.1269Z" fill="black"/>
<path d="M531.398 138.173C535.78 137.395 548.927 136.306 566.457 138.173" stroke="black" stroke-width="5" stroke-linecap="round"/>
<path d="M603.579 140.235C607.703 138.679 620.077 136.5 636.575 140.235" stroke="black" stroke-width="5" stroke-linecap="round"/>
<path d="M537.367 297.221C435.283 290.002 410.123 275.464 336.293 452.408" stroke="black" stroke-width="5" stroke-linecap="round"/>
<path d="M636.271 293.497C723.918 308.963 766.195 255.344 823.939 432.186" stroke="black" stroke-width="5" stroke-linecap="round"/>
<path d="M397.646 564.286C386.8 616.107 352.251 619.642 335.057 614.71C334.395 614.52 334.177 613.695 334.589 613.143C373.65 560.659 313.119 521.872 282.093 531.987C281.556 532.162 280.971 531.859 280.818 531.316C274.994 510.564 308.814 507.121 312.062 478.702C313.711 464.266 315.671 456.88 323.919 456.532C360.525 454.985 411.567 497.778 397.646 564.286Z" stroke="black" stroke-width="5" stroke-linecap="round"/>
<path d="M831.158 438.887C839.831 479.192 867.689 498.798 857.278 525.681C857.093 526.161 856.535 526.412 856.041 526.268C790.465 507.119 776.307 582.952 803.203 606.288C803.91 606.901 803.542 608.108 802.607 608.116C758.072 608.515 724.127 534.199 734.23 505.911C762.586 426.514 828.162 424.967 831.158 438.887Z" stroke="black" stroke-width="5" stroke-linecap="round"/>
<path d="M747.119 570.358C746.776 638.586 748.047 709.666 757.946 765.76" stroke="black" stroke-width="5" stroke-linecap="round"/>
<path d="M399.709 558.1C400.397 625.468 398.369 702.769 386.82 770" stroke="black" stroke-width="5" stroke-linecap="round"/>
<path d="M626.905 318.656C631.494 305.778 627.298 297.111 623.226 295.46C598.692 317.255 561.481 309.164 547.696 295.955C542.786 300.314 545.643 313.208 547.696 317.17C574.266 345.701 612.084 329.719 626.905 318.656Z" fill="black"/>
</svg>